<svg id="Capa_1" enable-background="new 0 0 497 497" height="512" viewBox="0 0 497 497" width="512" xmlns="http://www.w3.org/2000/svg"><g><path d="m338.99 338.99c-106.789 106.789-250.931 145.337-313.055 157.588-15.162 2.99-28.502-10.35-25.512-25.512 12.25-62.125 50.798-206.267 157.587-313.056s250.932-145.337 313.056-157.587c15.162-2.99 28.502 10.35 25.512 25.512-12.251 62.124-50.799 206.266-157.588 313.055z" fill="#ffea9a"/><path d="m471.065.422c-4.331.854-9.075 1.841-14.163 2.966 7.159 4.566 11.517 13.207 9.676 22.546-12.251 62.125-50.799 206.267-157.588 313.056-99.344 99.343-231 139.624-298.892 154.622 4.464 2.847 10.014 4.114 15.837 2.966 62.124-12.251 206.266-50.798 313.055-157.587 106.789-106.79 145.337-250.932 157.588-313.056 2.989-15.162-10.35-28.502-25.513-25.513z" fill="#ffe480"/><path d="m301.786 301.786c-6.379 6.379-1.099 24.264-7.799 29.983-34.859 29.757-73.401 50.824-108.709 65.631-54.018 22.653-108.33-31.659-85.677-85.677 14.807-35.308 35.874-73.85 65.631-108.709 5.72-6.7 23.383-1.641 29.763-8.02 8.722-8.723 6.168-28.436 15.457-35.937 32.848-26.527 68.456-45.696 101.271-59.457 54.018-22.653 108.33 31.659 85.677 85.677-13.762 32.815-32.93 68.423-59.457 101.272-7.501 9.29-27.435 6.514-36.157 15.237z" fill="#ffd05c"/><path d="m322.303 96.129c36.356 8.864 61.9 49.081 45.097 89.147-17.653 42.095-44.204 88.786-83.771 128.352-39.567 39.567-86.258 66.118-128.353 83.771-3.533 1.481-7.066 2.625-10.58 3.47 12.66 3.086 26.628 2.38 40.58-3.47 42.095-17.653 88.786-44.204 128.353-83.771 39.567-39.566 66.117-86.257 83.771-128.352 21.172-50.484-24.885-101.219-75.097-89.147z" fill="#e8bd54"/><path d="m210.457 159.064c-10.526-4.737-27.21 6.145-35.933 14.869-6.38 6.38-16.217 20.794-9.289 29.084l128.748 128.748c9.028 5.462 17.704-6.577 24.083-12.956 8.723-8.723 26.079-21.247 19.869-32.266z" fill="#ffea9a"/><path d="m87.362 440.032c-1.919 0-3.839-.732-5.304-2.197l-22.894-22.894c-2.929-2.929-2.929-7.678 0-10.606 2.93-2.929 7.678-2.929 10.608 0l22.893 22.893c2.929 2.929 2.929 7.678 0 10.607-1.464 1.464-3.384 2.197-5.303 2.197z" fill="#ffd05c"/><path d="m426.334 101.06c-1.919 0-3.839-.732-5.304-2.197l-22.894-22.894c-2.929-2.929-2.929-7.678 0-10.606 2.93-2.929 7.678-2.929 10.607 0l22.894 22.894c2.929 2.929 2.929 7.678 0 10.606-1.464 1.464-3.384 2.197-5.303 2.197z" fill="#ffd05c"/><path d="m73.199 119.168-52.584-52.584c-3.263-3.263-3.263-8.553 0-11.816l41.909-41.909c3.263-3.263 8.553-3.263 11.816 0l52.584 52.584c14.836 14.836 10.3 64.024 10.3 64.024-.001.001-49.189 4.537-64.025-10.299z" fill="#15a977"/><path d="m126.924 65.443-52.584-52.584c-3.263-3.263-8.553-3.263-11.816 0l-9.092 9.092 43.492 43.492c14.836 14.836 10.3 64.025 10.3 64.025s-.43.04-1.219.099c16.038 1.299 31.219-.099 31.219-.099-.001 0 4.536-49.189-10.3-64.025z" fill="#139a71"/><path d="m384.94 431.557 52.584 52.584c3.263 3.263 8.553 3.263 11.816 0l41.909-41.909c3.263-3.263 3.263-8.553 0-11.816l-52.584-52.584c-14.836-14.836-64.025-10.3-64.025-10.3.001.001-4.535 49.19 10.3 64.025z" fill="#15a977"/><path d="m491.25 430.417-52.584-52.585c-13.451-13.451-55.138-10.978-62.805-10.399 12.832 1.04 26.211 3.805 32.805 10.399l52.584 52.585c3.263 3.263 3.263 8.553 0 11.816l-32.817 32.817 9.092 9.092c3.263 3.263 8.553 3.263 11.816 0l41.909-41.909c3.263-3.263 3.263-8.553 0-11.816z" fill="#139a71"/><path d="m386.676 369.051-38.276-38.275c-.001-.001-.002-.001-.003-.002l-215.715-215.717c-2.93-2.929-7.678-2.929-10.607 0s-2.929 7.678 0 10.606l227.355 227.357.003.003 26.635 26.635c1.465 1.464 3.385 2.197 5.304 2.197s3.839-.732 5.304-2.197c2.929-2.929 2.929-7.678 0-10.607z" fill="#fbedce"/></g></svg>